# created with pCon.planner

mtllib bridge3_abutments.mtl

g mesh_0
v 5.6568542 -0.65 5.6568542
v 5.6568542 -0.4 5.6568542
v 4.2426407 -1.7833 4.2426407
v 4.2426407 -0.74521429 4.2426407
v 3.6769553 -1.7833 3.6769553
v 3.6769553 -0.78330002 3.6769553
v 3.6769553 -0.4 3.6769553
v -3.6769553 -1.7833 -3.6769553
v -3.6769553 -0.78330002 -3.6769553
v -3.6769553 -0.4 -3.6769553
v -4.2426407 -1.7833 -4.2426407
v -4.2426407 -0.74521429 -4.2426407
v -5.6568542 -0.65 -5.6568542
v -5.6568542 -0.4 -5.6568542
v 8.8361141 -10.3833 2.3361731
v 8.8361141 -8.8832998 2.3361731
v 4.8056054 -10.3833 -1.6943356
v 4.8056054 -8.8832998 -1.6943356
v 1.6943356 -10.3833 -4.8056054
v 1.6943356 -8.8832998 -4.8056054
v -2.3361731 -10.3833 -8.8361141
v -2.3361731 -8.8832998 -8.8361141
v 7.8461646 -8.7832998 0.63911681
v 7.2804791 -8.7832998 0.073431382
v -0.073431382 -8.7832998 -7.2804791
v -0.63911681 -8.7832998 -7.8461646
v 7.9168752 -8.7832998 0.56840613
v 7.3511898 -8.7832998 0.0027207038
v -0.0027207038 -8.7832998 -7.3511898
v -0.56840613 -8.7832998 -7.9168752
v 8.6974134 -10.3833 -5.5861436
v 8.6974134 -8.8832998 -5.5861436
v 5.5861436 -10.3833 -8.6974134
v 5.5861436 -8.8832998 -8.6974134
v 13.930004 -0.65 -2.6162951
v 13.930004 -0.4 -2.6162951
v 12.51579 -0.74521429 -4.0305087
v 11.950105 -4.7832998 -4.5961941
v 11.950105 -0.78330002 -4.5961941
v 11.950105 -0.4 -4.5961941
v 4.5961941 -4.7832998 -11.950105
v 4.5961941 -0.78330002 -11.950105
v 4.5961941 -0.4 -11.950105
v 4.0305087 -0.74521429 -12.51579
v 2.6162951 -0.65 -13.930004
v 2.6162951 -0.4 -13.930004
v 12.162237 -0.78330002 -4.8083261
v 12.162237 -8.7832998 -4.8083261
v 12.162237 -6.7832998 -4.8083261
v 12.162237 -2.8832998 -4.8083261
v 12.162237 -0.78330002 -4.8083261
v 12.162237 -2.8832998 -4.8083261
v 12.162237 -8.7832998 -4.8083261
v 12.162237 -2.8832998 -4.8083261
v 12.162237 -6.7832998 -4.8083261
v 12.162237 -8.7832998 -4.8083261
v 12.162237 -8.7832998 -4.8083261
v 12.162237 -8.7832998 -4.8083261
v 4.8083261 -0.78330002 -12.162237
v 4.8083261 -8.7832998 -12.162237
v 4.8083261 -8.7832998 -12.162237
v 4.8083261 -8.7832998 -12.162237
v 4.8083261 -6.7832998 -12.162237
v 4.8083261 -2.8832998 -12.162237
v 4.8083261 -6.7832998 -12.162237
v 4.8083261 -2.8832998 -12.162237
v 14.142136 -8.7832998 -5.6568542
v 14.142136 -0.74521429 -5.6568542
v 13.57645 -8.7832998 -6.2225397
v 13.57645 -2.7833 -6.2225397
v 13.57645 -0.78330002 -6.2225397
v 6.2225397 -8.7832998 -13.57645
v 6.2225397 -2.7833 -13.57645
v 6.2225397 -0.78330002 -13.57645
v 5.6568542 -8.7832998 -14.142136
v 5.6568542 -0.74521429 -14.142136
v 17.606959 -10.3833 -6.4346717
v 17.606959 -8.8832998 -6.4346717
v 6.4346717 -10.3833 -17.606959
v 6.4346717 -8.8832998 -17.606959
vn -0.70710678 0 0.70710678
vn -0.70710678 0 0.70710678
vn -0.70710678 0 0.70710678
vn -0.6992836 -0.14834045 0.6992836
vn -0.6992836 -0.14834045 0.6992836
vn -0.6992836 -0.14834045 0.6992836
vn -0.56777495 -0.5960396 0.56777495
vn -0.13867551 0.98058055 0.13867551
vn -0.037164814 0.99861782 0.037164814
vn -0.037164814 0.99861782 0.037164814
vn -0.037164814 0.99861782 0.037164814
vn -0.035311177 0.99875234 0.035311177
vn -0.035311177 0.99875234 0.035311177
vn -0.035311177 0.99875234 0.035311177
vn -0.023557212 -0.9994449 0.023557212
vn 0.70710678 0 0.70710678
vn 0.037164819 -0.99861782 0.037164819
vn 0.037164819 0.99861782 0.037164819
vn 0.033625256 -0.9988687 0.033625256
vn 0.033625256 0.9988687 0.033625256
vn 0.033625248 -0.9988687 0.033625248
vn 0.033625248 0.9988687 0.033625248
vn 0.023557212 -0.9994449 0.023557212
vn 0.023557212 0.9994449 0.023557212
vn 0 -1 0
vn 0 1 0
vn -0.023557212 -0.9994449 -0.023557212
vn -0.023557212 0.9994449 -0.023557212
vn -0.033625248 -0.9988687 -0.033625248
vn -0.033625248 0.9988687 -0.033625248
vn -0.033625256 -0.9988687 -0.033625256
vn -0.033625256 0.9988687 -0.033625256
vn -0.037164819 -0.99861782 -0.037164819
vn -0.037164819 0.99861782 -0.037164819
vn -0.70710678 0 -0.70710678
vn 0.023557212 0.9994449 -0.023557212
vn 0.035311177 -0.99875234 -0.035311177
vn 0.035311177 -0.99875234 -0.035311177
vn 0.035311177 -0.99875234 -0.035311177
vn 0.037164814 -0.99861782 -0.037164814
vn 0.037164814 -0.99861782 -0.037164814
vn 0.037164814 -0.99861782 -0.037164814
vn 0.13867551 -0.98058055 -0.13867551
vn 0.56777495 0.5960396 -0.56777495
vn 0.6992836 0.14834045 -0.6992836
vn 0.6992836 0.14834045 -0.6992836
vn 0.6992836 0.14834045 -0.6992836
vn 0.70710678 0 -0.70710678
vn 0.70710678 0 -0.70710678
vn 0.70710678 0 -0.70710678
usemtl mat_Global_e3b63687
f 40//26 7//26 2//26
f 2//25 7//25 40//25
f 2//26 36//26 40//26
f 40//25 36//25 2//25
f 39//35 6//35 7//35
f 7//16 6//16 39//16
f 7//35 40//35 39//35
f 39//16 40//16 7//16
f 37//19 4//19 6//19
f 6//32 4//32 37//32
f 6//19 39//19 37//19
f 37//32 39//32 6//32
f 35//21 1//21 4//21
f 4//30 1//30 35//30
f 4//21 37//21 35//21
f 35//30 37//30 4//30
f 36//16 2//16 1//16
f 1//35 2//35 36//35
f 1//16 35//16 36//16
f 36//35 35//35 1//35
f 1//1 2//1 4//1
f 4//50 2//50 1//50
f 7//1 6//1 4//1
f 4//50 6//50 7//50
f 4//1 2//1 7//1
f 7//50 2//50 4//50
f 40//50 36//50 37//50
f 37//1 36//1 40//1
f 37//50 39//50 40//50
f 40//1 39//1 37//1
f 35//50 37//50 36//50
f 36//1 37//1 35//1
f 46//26 14//26 10//26
f 10//25 14//25 46//25
f 10//26 43//26 46//26
f 46//25 43//25 10//25
f 45//35 13//35 14//35
f 14//16 13//16 45//16
f 14//35 46//35 45//35
f 45//16 46//16 14//16
f 44//29 12//29 13//29
f 13//22 12//22 44//22
f 13//29 45//29 44//29
f 44//22 45//22 13//22
f 42//31 9//31 12//31
f 12//20 9//20 42//20
f 12//31 44//31 42//31
f 42//20 44//20 12//20
f 43//16 10//16 9//16
f 9//35 10//35 43//35
f 9//16 42//16 43//16
f 43//35 42//35 9//35
f 9//1 10//1 12//1
f 12//50 10//50 9//50
f 14//1 13//1 12//1
f 12//50 13//50 14//50
f 12//1 10//1 14//1
f 14//50 10//50 12//50
f 46//50 43//50 44//50
f 44//1 43//1 46//1
f 44//50 45//50 46//50
f 46//1 45//1 44//1
f 42//50 44//50 43//50
f 43//1 44//1 42//1
f 74//20 76//20 12//20
f 12//31 76//31 74//31
f 12//20 9//20 74//20
f 74//31 9//31 12//31
f 76//50 74//50 73//50
f 73//1 74//1 76//1
f 73//50 72//50 75//50
f 75//1 72//1 73//1
f 75//50 76//50 73//50
f 73//1 76//1 75//1
f 75//25 72//25 62//25
f 62//26 72//26 75//26
f 62//25 29//25 30//25
f 30//26 29//26 62//26
f 30//25 75//25 62//25
f 62//26 75//26 30//26
f 8//7 11//7 30//7
f 30//44 11//44 8//44
f 30//7 29//7 8//7
f 8//44 29//44 30//44
f 9//1 12//1 11//1
f 11//50 12//50 9//50
f 11//1 8//1 9//1
f 9//50 8//50 11//50
f 11//35 12//35 76//35
f 76//16 12//16 11//16
f 76//35 75//35 30//35
f 30//16 75//16 76//16
f 30//35 11//35 76//35
f 76//16 11//16 30//16
f 74//16 9//16 8//16
f 8//35 9//35 74//35
f 8//16 73//16 74//16
f 74//35 73//35 8//35
f 73//16 29//16 62//16
f 62//35 29//35 73//35
f 62//16 72//16 73//16
f 73//35 72//35 62//35
f 29//16 73//16 8//16
f 8//35 73//35 29//35
f 5//1 3//1 6//1
f 6//50 3//50 5//50
f 3//1 4//1 6//1
f 6//50 4//50 3//50
f 28//7 27//7 3//7
f 3//44 27//44 28//44
f 3//7 5//7 28//7
f 28//44 5//44 3//44
f 27//25 28//25 53//25
f 53//26 28//26 27//26
f 53//25 69//25 67//25
f 67//26 69//26 53//26
f 67//25 27//25 53//25
f 53//26 27//26 67//26
f 67//50 69//50 70//50
f 70//1 69//1 67//1
f 70//50 71//50 68//50
f 68//1 71//1 70//1
f 68//50 67//50 70//50
f 70//1 67//1 68//1
f 6//32 4//32 68//32
f 68//19 4//19 6//19
f 68//32 71//32 6//32
f 6//19 71//19 68//19
f 68//16 4//16 3//16
f 3//35 4//35 68//35
f 27//16 67//16 68//16
f 68//35 67//35 27//35
f 68//16 3//16 27//16
f 27//35 3//35 68//35
f 28//35 5//35 70//35
f 70//16 5//16 28//16
f 70//35 53//35 28//35
f 28//16 53//16 70//16
f 5//35 6//35 71//35
f 71//16 6//16 5//16
f 71//35 70//35 5//35
f 5//16 70//16 71//16
f 69//35 53//35 70//35
f 70//16 53//16 69//16
f 19//1 20//1 22//1
f 22//50 20//50 19//50
f 22//1 21//1 19//1
f 19//50 21//50 22//50
f 33//16 34//16 20//16
f 20//35 34//35 33//35
f 20//16 19//16 33//16
f 33//35 19//35 20//35
f 31//1 32//1 34//1
f 34//50 32//50 31//50
f 34//1 33//1 31//1
f 31//50 33//50 34//50
f 17//35 18//35 32//35
f 32//16 18//16 17//16
f 32//35 31//35 17//35
f 17//16 31//16 32//16
f 15//1 16//1 18//1
f 18//50 16//50 15//50
f 18//1 17//1 15//1
f 15//50 17//50 18//50
f 77//16 78//16 16//16
f 16//35 78//35 77//35
f 16//16 15//16 77//16
f 77//35 15//35 16//35
f 79//50 80//50 78//50
f 78//1 80//1 79//1
f 78//50 77//50 79//50
f 79//1 77//1 78//1
f 21//35 22//35 80//35
f 80//16 22//16 21//16
f 80//35 79//35 21//35
f 21//16 79//16 80//16
f 22//26 20//26 34//26
f 34//25 20//25 22//25
f 34//26 80//26 22//26
f 22//25 80//25 34//25
f 78//26 80//26 34//26
f 34//25 80//25 78//25
f 34//26 32//26 78//26
f 78//25 32//25 34//25
f 32//26 18//26 16//26
f 16//25 18//25 32//25
f 16//26 78//26 32//26
f 32//25 78//25 16//25
f 33//25 19//25 21//25
f 21//26 19//26 33//26
f 21//25 79//25 33//25
f 33//26 79//26 21//26
f 15//25 17//25 31//25
f 31//26 17//26 15//26
f 31//25 77//25 15//25
f 15//26 77//26 31//26
f 33//25 79//25 77//25
f 77//26 79//26 33//26
f 77//25 31//25 33//25
f 33//26 31//26 77//26
f 20//8 25//8 22//8
f 22//43 25//43 20//43
f 25//8 26//8 22//8
f 22//43 26//43 25//43
f 34//24 60//24 25//24
f 25//27 60//27 34//27
f 25//24 20//24 34//24
f 34//27 20//27 25//27
f 32//9 56//10 34//10
f 34//41 56//41 32//42
f 56//10 61//11 34//10
f 34//41 61//40 56//41
f 18//28 24//28 32//28
f 32//23 24//23 18//23
f 24//28 58//28 32//28
f 32//23 58//23 24//23
f 16//8 23//8 24//8
f 24//43 23//43 16//43
f 24//8 18//8 16//8
f 16//43 18//43 24//43
f 78//18 67//18 16//18
f 16//33 67//33 78//33
f 67//18 23//18 16//18
f 16//33 23//33 67//33
f 80//36 75//36 67//36
f 67//15 75//15 80//15
f 67//36 78//36 80//36
f 80//15 78//15 67//15
f 22//34 26//34 75//34
f 75//17 26//17 22//17
f 75//34 80//34 22//34
f 22//17 80//17 75//17
f 57//26 24//26 23//26
f 23//25 24//25 57//25
f 23//26 67//26 57//26
f 57//25 67//25 23//25
f 26//26 25//26 60//26
f 60//25 25//25 26//25
f 60//26 75//26 26//26
f 26//25 75//25 60//25
f 60//26 57//26 67//26
f 67//25 57//25 60//25
f 67//26 75//26 60//26
f 60//25 75//25 67//25
f 34//25 20//25 22//25
f 22//26 20//26 34//26
f 22//25 80//25 34//25
f 34//26 80//26 22//26
f 16//25 18//25 32//25
f 32//26 18//26 16//26
f 32//25 78//25 16//25
f 16//26 78//26 32//26
f 34//25 80//25 78//25
f 78//26 80//26 34//26
f 78//25 32//25 34//25
f 34//26 32//26 78//26
f 51//26 59//26 42//26
f 42//25 59//25 51//25
f 42//26 39//26 51//26
f 51//25 39//25 42//25
f 54//49 64//49 59//49
f 59//2 64//2 54//2
f 59//49 47//49 54//49
f 54//2 47//2 59//2
f 70//13 73//12 66//13
f 66//38 73//39 70//38
f 66//13 52//14 70//13
f 70//38 52//37 66//38
f 69//50 72//50 73//50
f 73//1 72//1 69//1
f 73//50 70//50 69//50
f 69//1 70//1 73//1
f 48//25 62//25 69//25
f 69//26 62//26 48//26
f 62//25 72//25 69//25
f 69//26 72//26 62//26
f 49//3 63//3 62//3
f 62//48 63//48 49//48
f 62//3 48//3 49//3
f 49//48 48//48 62//48
f 38//5 41//4 63//5
f 63//46 41//47 38//46
f 63//5 55//6 38//5
f 38//46 55//45 63//46
f 39//1 42//1 41//1
f 41//50 42//50 39//50
f 41//1 38//1 39//1
f 39//50 38//50 41//50
f 64//35 41//35 42//35
f 42//16 41//16 64//16
f 42//35 59//35 64//35
f 64//16 59//16 42//16
f 73//35 65//35 41//35
f 41//16 65//16 73//16
f 41//35 64//35 73//35
f 73//16 64//16 41//16
f 72//35 62//35 65//35
f 65//16 62//16 72//16
f 65//35 73//35 72//35
f 72//16 73//16 65//16
f 50//16 51//16 39//16
f 39//35 51//35 50//35
f 39//16 38//16 50//16
f 50//35 38//35 39//35
f 70//16 50//16 38//16
f 38//35 50//35 70//35
f 38//16 49//16 70//16
f 70//35 49//35 38//35
f 69//16 70//16 49//16
f 49//35 70//35 69//35
f 49//16 48//16 69//16
f 69//35 48//35 49//35
g mesh_1
v 59.324421 -0.75 -70.62449
v 59.324421 -0.5 -70.62449
v 60.738635 -1.8833 -69.210277
v 60.738635 -0.84521429 -69.210277
v 61.30432 -1.8833 -68.644591
v 61.30432 -0.88330002 -68.644591
v 61.30432 -0.5 -68.644591
v 68.65823 -1.8833 -61.290681
v 68.65823 -0.88330002 -61.290681
v 68.65823 -0.5 -61.290681
v 69.223916 -1.8833 -60.724995
v 69.223916 -0.84521429 -60.724995
v 70.638129 -0.75 -59.310782
v 70.638129 -0.5 -59.310782
v 56.145161 -10.4833 -67.303809
v 56.145161 -8.9832998 -67.303809
v 60.17567 -10.4833 -63.2733
v 60.17567 -8.9832998 -63.2733
v 63.28694 -10.4833 -60.16203
v 63.28694 -8.9832998 -60.16203
v 67.317448 -10.4833 -56.131522
v 67.317448 -8.9832998 -56.131522
v 57.135111 -8.8832998 -65.606753
v 57.700796 -8.8832998 -65.041067
v 65.054707 -8.8832998 -57.687157
v 65.620392 -8.8832998 -57.121471
v 57.0644 -8.8832998 -65.536042
v 57.630085 -8.8832998 -64.970357
v 64.983996 -8.8832998 -57.616446
v 65.549681 -8.8832998 -57.050761
v 56.283862 -10.4833 -59.381492
v 56.283862 -8.9832998 -59.381492
v 59.395132 -10.4833 -56.270222
v 59.395132 -8.9832998 -56.270222
v 51.051272 -0.75 -62.351341
v 51.051272 -0.5 -62.351341
v 52.465485 -0.84521429 -60.937127
v 53.031171 -4.8832998 -60.371442
v 53.031171 -0.88330002 -60.371442
v 53.031171 -0.5 -60.371442
v 60.385081 -4.8832998 -53.017531
v 60.385081 -0.88330002 -53.017531
v 60.385081 -0.5 -53.017531
v 60.950767 -0.84521429 -52.451846
v 62.36498 -0.75 -51.037632
v 62.36498 -0.5 -51.037632
v 52.819039 -0.88330002 -60.15931
v 52.819039 -8.8832998 -60.15931
v 52.819039 -6.8832998 -60.15931
v 52.819039 -2.9832998 -60.15931
v 52.819039 -0.88330002 -60.15931
v 52.819039 -2.9832998 -60.15931
v 52.819039 -8.8832998 -60.15931
v 52.819039 -2.9832998 -60.15931
v 52.819039 -6.8832998 -60.15931
v 52.819039 -8.8832998 -60.15931
v 52.819039 -8.8832998 -60.15931
v 52.819039 -8.8832998 -60.15931
v 60.172949 -0.88330002 -52.805399
v 60.172949 -8.8832998 -52.805399
v 60.172949 -8.8832998 -52.805399
v 60.172949 -8.8832998 -52.805399
v 60.172949 -6.8832998 -52.805399
v 60.172949 -2.9832998 -52.805399
v 60.172949 -6.8832998 -52.805399
v 60.172949 -2.9832998 -52.805399
v 50.83914 -8.8832998 -59.310782
v 50.83914 -0.84521429 -59.310782
v 51.404825 -8.8832998 -58.745096
v 51.404825 -2.8833 -58.745096
v 51.404825 -0.88330002 -58.745096
v 58.758736 -8.8832998 -51.391186
v 58.758736 -2.8833 -51.391186
v 58.758736 -0.88330002 -51.391186
v 59.324421 -8.8832998 -50.8255
v 59.324421 -0.84521429 -50.8255
v 47.374316 -10.4833 -58.532964
v 47.374316 -8.9832998 -58.532964
v 58.546603 -10.4833 -47.360677
v 58.546603 -8.9832998 -47.360677
vn 0.70710678 0 -0.70710678
vn 0.70710678 0 -0.70710678
vn 0.70710678 0 -0.70710678
vn 0.6992836 -0.14834045 -0.6992836
vn 0.6992836 -0.14834045 -0.6992836
vn 0.6992836 -0.14834045 -0.6992836
vn 0.56777495 -0.5960396 -0.56777495
vn 0.13867551 0.98058055 -0.13867551
vn 0.037164814 0.99861782 -0.037164814
vn 0.037164814 0.99861782 -0.037164814
vn 0.037164814 0.99861782 -0.037164814
vn 0.035311177 0.99875234 -0.035311177
vn 0.035311177 0.99875234 -0.035311177
vn 0.035311177 0.99875234 -0.035311177
vn 0.023557212 -0.9994449 -0.023557212
vn -0.70710678 0 -0.70710678
vn -0.037164819 -0.99861782 -0.037164819
vn -0.037164819 0.99861782 -0.037164819
vn -0.033625256 -0.9988687 -0.033625256
vn -0.033625256 0.9988687 -0.033625256
vn -0.033625248 -0.9988687 -0.033625248
vn -0.033625248 0.9988687 -0.033625248
vn -0.023557212 -0.9994449 -0.023557212
vn -0.023557212 0.9994449 -0.023557212
vn 0 -1 0
vn 0 1 0
vn 0.023557212 -0.9994449 0.023557212
vn 0.023557212 0.9994449 0.023557212
vn 0.033625248 -0.9988687 0.033625248
vn 0.033625248 0.9988687 0.033625248
vn 0.033625256 -0.9988687 0.033625256
vn 0.033625256 0.9988687 0.033625256
vn 0.037164819 -0.99861782 0.037164819
vn 0.037164819 0.99861782 0.037164819
vn 0.70710678 0 0.70710678
vn -0.023557212 0.9994449 0.023557212
vn -0.035311177 -0.99875234 0.035311177
vn -0.035311177 -0.99875234 0.035311177
vn -0.035311177 -0.99875234 0.035311177
vn -0.037164814 -0.99861782 0.037164814
vn -0.037164814 -0.99861782 0.037164814
vn -0.037164814 -0.99861782 0.037164814
vn -0.13867551 -0.98058055 0.13867551
vn -0.56777495 0.5960396 0.56777495
vn -0.6992836 0.14834045 0.6992836
vn -0.6992836 0.14834045 0.6992836
vn -0.6992836 0.14834045 0.6992836
vn -0.70710678 0 0.70710678
vn -0.70710678 0 0.70710678
vn -0.70710678 0 0.70710678
usemtl mat_Global_e3b63687
f 120//76 87//76 82//76
f 82//75 87//75 120//75
f 82//76 116//76 120//76
f 120//75 116//75 82//75
f 119//85 86//85 87//85
f 87//66 86//66 119//66
f 87//85 120//85 119//85
f 119//66 120//66 87//66
f 117//69 84//69 86//69
f 86//82 84//82 117//82
f 86//69 119//69 117//69
f 117//82 119//82 86//82
f 115//71 81//71 84//71
f 84//80 81//80 115//80
f 84//71 117//71 115//71
f 115//80 117//80 84//80
f 116//66 82//66 81//66
f 81//85 82//85 116//85
f 81//66 115//66 116//66
f 116//85 115//85 81//85
f 81//51 82//51 84//51
f 84//100 82//100 81//100
f 87//51 86//51 84//51
f 84//100 86//100 87//100
f 84//51 82//51 87//51
f 87//100 82//100 84//100
f 120//100 116//100 117//100
f 117//51 116//51 120//51
f 117//100 119//100 120//100
f 120//51 119//51 117//51
f 115//100 117//100 116//100
f 116//51 117//51 115//51
f 126//76 94//76 90//76
f 90//75 94//75 126//75
f 90//76 123//76 126//76
f 126//75 123//75 90//75
f 125//85 93//85 94//85
f 94//66 93//66 125//66
f 94//85 126//85 125//85
f 125//66 126//66 94//66
f 124//79 92//79 93//79
f 93//72 92//72 124//72
f 93//79 125//79 124//79
f 124//72 125//72 93//72
f 122//81 89//81 92//81
f 92//70 89//70 122//70
f 92//81 124//81 122//81
f 122//70 124//70 92//70
f 123//66 90//66 89//66
f 89//85 90//85 123//85
f 89//66 122//66 123//66
f 123//85 122//85 89//85
f 89//51 90//51 92//51
f 92//100 90//100 89//100
f 94//51 93//51 92//51
f 92//100 93//100 94//100
f 92//51 90//51 94//51
f 94//100 90//100 92//100
f 126//100 123//100 124//100
f 124//51 123//51 126//51
f 124//100 125//100 126//100
f 126//51 125//51 124//51
f 122//100 124//100 123//100
f 123//51 124//51 122//51
f 154//70 156//70 92//70
f 92//81 156//81 154//81
f 92//70 89//70 154//70
f 154//81 89//81 92//81
f 156//100 154//100 153//100
f 153//51 154//51 156//51
f 153//100 152//100 155//100
f 155//51 152//51 153//51
f 155//100 156//100 153//100
f 153//51 156//51 155//51
f 155//75 152//75 142//75
f 142//76 152//76 155//76
f 142//75 109//75 110//75
f 110//76 109//76 142//76
f 110//75 155//75 142//75
f 142//76 155//76 110//76
f 88//57 91//57 110//57
f 110//94 91//94 88//94
f 110//57 109//57 88//57
f 88//94 109//94 110//94
f 89//51 92//51 91//51
f 91//100 92//100 89//100
f 91//51 88//51 89//51
f 89//100 88//100 91//100
f 91//85 92//85 156//85
f 156//66 92//66 91//66
f 156//85 155//85 110//85
f 110//66 155//66 156//66
f 110//85 91//85 156//85
f 156//66 91//66 110//66
f 154//66 89//66 88//66
f 88//85 89//85 154//85
f 88//66 153//66 154//66
f 154//85 153//85 88//85
f 153//66 109//66 142//66
f 142//85 109//85 153//85
f 142//66 152//66 153//66
f 153//85 152//85 142//85
f 109//66 153//66 88//66
f 88//85 153//85 109//85
f 85//51 83//51 86//51
f 86//100 83//100 85//100
f 83//51 84//51 86//51
f 86//100 84//100 83//100
f 108//57 107//57 83//57
f 83//94 107//94 108//94
f 83//57 85//57 108//57
f 108//94 85//94 83//94
f 107//75 108//75 133//75
f 133//76 108//76 107//76
f 133//75 149//75 147//75
f 147//76 149//76 133//76
f 147//75 107//75 133//75
f 133//76 107//76 147//76
f 147//100 149//100 150//100
f 150//51 149//51 147//51
f 150//100 151//100 148//100
f 148//51 151//51 150//51
f 148//100 147//100 150//100
f 150//51 147//51 148//51
f 86//82 84//82 148//82
f 148//69 84//69 86//69
f 148//82 151//82 86//82
f 86//69 151//69 148//69
f 148//66 84//66 83//66
f 83//85 84//85 148//85
f 107//66 147//66 148//66
f 148//85 147//85 107//85
f 148//66 83//66 107//66
f 107//85 83//85 148//85
f 108//85 85//85 150//85
f 150//66 85//66 108//66
f 150//85 133//85 108//85
f 108//66 133//66 150//66
f 85//85 86//85 151//85
f 151//66 86//66 85//66
f 151//85 150//85 85//85
f 85//66 150//66 151//66
f 149//85 133//85 150//85
f 150//66 133//66 149//66
f 99//51 100//51 102//51
f 102//100 100//100 99//100
f 102//51 101//51 99//51
f 99//100 101//100 102//100
f 113//66 114//66 100//66
f 100//85 114//85 113//85
f 100//66 99//66 113//66
f 113//85 99//85 100//85
f 111//51 112//51 114//51
f 114//100 112//100 111//100
f 114//51 113//51 111//51
f 111//100 113//100 114//100
f 97//85 98//85 112//85
f 112//66 98//66 97//66
f 112//85 111//85 97//85
f 97//66 111//66 112//66
f 95//51 96//51 98//51
f 98//100 96//100 95//100
f 98//51 97//51 95//51
f 95//100 97//100 98//100
f 157//66 158//66 96//66
f 96//85 158//85 157//85
f 96//66 95//66 157//66
f 157//85 95//85 96//85
f 159//100 160//100 158//100
f 158//51 160//51 159//51
f 158//100 157//100 159//100
f 159//51 157//51 158//51
f 101//85 102//85 160//85
f 160//66 102//66 101//66
f 160//85 159//85 101//85
f 101//66 159//66 160//66
f 102//76 100//76 114//76
f 114//75 100//75 102//75
f 114//76 160//76 102//76
f 102//75 160//75 114//75
f 158//76 160//76 114//76
f 114//75 160//75 158//75
f 114//76 112//76 158//76
f 158//75 112//75 114//75
f 112//76 98//76 96//76
f 96//75 98//75 112//75
f 96//76 158//76 112//76
f 112//75 158//75 96//75
f 113//75 99//75 101//75
f 101//76 99//76 113//76
f 101//75 159//75 113//75
f 113//76 159//76 101//76
f 95//75 97//75 111//75
f 111//76 97//76 95//76
f 111//75 157//75 95//75
f 95//76 157//76 111//76
f 113//75 159//75 157//75
f 157//76 159//76 113//76
f 157//75 111//75 113//75
f 113//76 111//76 157//76
f 100//58 105//58 102//58
f 102//93 105//93 100//93
f 105//58 106//58 102//58
f 102//93 106//93 105//93
f 114//74 140//74 105//74
f 105//77 140//77 114//77
f 105//74 100//74 114//74
f 114//77 100//77 105//77
f 112//59 136//60 114//60
f 114//91 136//91 112//92
f 136//60 141//61 114//60
f 114//91 141//90 136//91
f 98//78 104//78 112//78
f 112//73 104//73 98//73
f 104//78 138//78 112//78
f 112//73 138//73 104//73
f 96//58 103//58 104//58
f 104//93 103//93 96//93
f 104//58 98//58 96//58
f 96//93 98//93 104//93
f 158//68 147//68 96//68
f 96//83 147//83 158//83
f 147//68 103//68 96//68
f 96//83 103//83 147//83
f 160//86 155//86 147//86
f 147//65 155//65 160//65
f 147//86 158//86 160//86
f 160//65 158//65 147//65
f 102//84 106//84 155//84
f 155//67 106//67 102//67
f 155//84 160//84 102//84
f 102//67 160//67 155//67
f 137//76 104//76 103//76
f 103//75 104//75 137//75
f 103//76 147//76 137//76
f 137//75 147//75 103//75
f 106//76 105//76 140//76
f 140//75 105//75 106//75
f 140//76 155//76 106//76
f 106//75 155//75 140//75
f 140//76 137//76 147//76
f 147//75 137//75 140//75
f 147//76 155//76 140//76
f 140//75 155//75 147//75
f 114//75 100//75 102//75
f 102//76 100//76 114//76
f 102//75 160//75 114//75
f 114//76 160//76 102//76
f 96//75 98//75 112//75
f 112//76 98//76 96//76
f 112//75 158//75 96//75
f 96//76 158//76 112//76
f 114//75 160//75 158//75
f 158//76 160//76 114//76
f 158//75 112//75 114//75
f 114//76 112//76 158//76
f 131//76 139//76 122//76
f 122//75 139//75 131//75
f 122//76 119//76 131//76
f 131//75 119//75 122//75
f 134//99 144//99 139//99
f 139//52 144//52 134//52
f 139//99 127//99 134//99
f 134//52 127//52 139//52
f 150//63 153//62 146//63
f 146//88 153//89 150//88
f 146//63 132//64 150//63
f 150//88 132//87 146//88
f 149//100 152//100 153//100
f 153//51 152//51 149//51
f 153//100 150//100 149//100
f 149//51 150//51 153//51
f 128//75 142//75 149//75
f 149//76 142//76 128//76
f 142//75 152//75 149//75
f 149//76 152//76 142//76
f 129//53 143//53 142//53
f 142//98 143//98 129//98
f 142//53 128//53 129//53
f 129//98 128//98 142//98
f 118//55 121//54 143//55
f 143//96 121//97 118//96
f 143//55 135//56 118//55
f 118//96 135//95 143//96
f 119//51 122//51 121//51
f 121//100 122//100 119//100
f 121//51 118//51 119//51
f 119//100 118//100 121//100
f 144//85 121//85 122//85
f 122//66 121//66 144//66
f 122//85 139//85 144//85
f 144//66 139//66 122//66
f 153//85 145//85 121//85
f 121//66 145//66 153//66
f 121//85 144//85 153//85
f 153//66 144//66 121//66
f 152//85 142//85 145//85
f 145//66 142//66 152//66
f 145//85 153//85 152//85
f 152//66 153//66 145//66
f 130//66 131//66 119//66
f 119//85 131//85 130//85
f 119//66 118//66 130//66
f 130//85 118//85 119//85
f 150//66 130//66 118//66
f 118//85 130//85 150//85
f 118//66 129//66 150//66
f 150//85 129//85 118//85
f 149//66 150//66 129//66
f 129//85 150//85 149//85
f 129//66 128//66 149//66
f 149//85 128//85 129//85
