# created with pCon.planner

mtllib bridge1_abutments.mtl

g mesh_0
v 4.9138813 -0.65 4.8441923
v 4.9138813 -0.4 4.8441923
v 4.2774852 -1.7833 4.2077962
v 4.2774852 -0.72057059 4.2077962
v 3.7117997 -1.7833 3.6421108
v 3.7117997 -0.78330002 3.6421108
v 3.7117997 -0.4 3.6421108
v -3.6421108 -1.7833 -3.7117997
v -3.6421108 -0.78330002 -3.7117997
v -3.6421108 -0.4 -3.7117997
v -4.2077962 -1.7833 -4.2774852
v -4.2077962 -0.72057059 -4.2774852
v -4.8441923 -0.65 -4.9138813
v -4.8441923 -0.4 -4.9138813
v 8.4627104 -9.3832998 2.7095768
v 8.4627104 -7.8833003 2.7095768
v 5.1393085 -9.3832998 -0.61382509
v 5.1393085 -7.8833003 -0.61382509
v 0.61382509 -9.3832998 -5.1393085
v 0.61382509 -7.8833003 -5.1393085
v -2.7095768 -9.3832998 -8.4627104
v -2.7095768 -7.8833003 -8.4627104
v 7.4727605 -7.7832998 1.0125209
v 6.9070751 -7.7832998 0.44683543
v -0.44683543 -7.7832998 -6.9070751
v -1.0125209 -7.7832998 -7.4727605
v 7.5434715 -7.7832998 0.94180983
v 6.9777861 -7.7832998 0.3761244
v -0.3761244 -7.7832998 -6.9777861
v -0.94180983 -7.7832998 -7.5434715
v 9.4393647 -9.3832998 -4.9138813
v 9.4393647 -7.8833003 -4.9138813
v 4.9138813 -9.3832998 -9.4393647
v 4.9138813 -7.8833003 -9.4393647
v 13.187031 -0.65 -3.428957
v 13.187031 -0.4 -3.428957
v 12.550634 -0.72057059 -4.0653531
v 11.984949 -3.7832998 -4.6310385
v 11.984949 -0.78330002 -4.6310385
v 11.984949 -0.4 -4.6310385
v 4.6310385 -3.7832998 -11.984949
v 4.6310385 -0.78330002 -11.984949
v 4.6310385 -0.4 -11.984949
v 4.6310385 -0.4 -11.984949
v 4.0653531 -0.72057059 -12.550634
v 3.428957 -0.65 -13.187031
v 3.428957 -0.4 -13.187031
v 3.428957 -0.4 -13.187031
v 12.197081 -0.78330002 -4.8431706
v 12.197081 -7.7832998 -4.8431706
v 12.197081 -6.7832998 -4.8431706
v 12.197081 -1.8333 -4.8431706
v 12.197081 -0.78330002 -4.8431706
v 12.197081 -7.7832998 -4.8431706
v 12.197081 -1.8333 -4.8431706
v 12.197081 -6.7832998 -4.8431706
v 12.197081 -7.7832998 -4.8431706
v 12.197081 -7.7832998 -4.8431706
v 4.8431706 -0.78330002 -12.197081
v 4.8431706 -7.7832998 -12.197081
v 4.8431706 -7.7832998 -12.197081
v 4.8431706 -1.8333 -12.197081
v 4.8431706 -7.7832998 -12.197081
v 4.8431706 -6.7832998 -12.197081
v 4.8431706 -1.8333 -12.197081
v 4.8431706 -6.7832998 -12.197081
v 13.469873 -7.7832998 -4.9845919
v 13.469873 -0.72057059 -4.9845919
v 12.904188 -7.7832998 -5.5502774
v 12.904188 -1.7833 -5.5502774
v 12.904188 -0.78330002 -5.5502774
v 5.5502774 -7.7832998 -12.904188
v 5.5502774 -1.7833 -12.904188
v 5.5502774 -0.78330002 -12.904188
v 4.9845919 -7.7832998 -13.469873
v 4.9845919 -0.72057059 -13.469873
v 16.086168 -9.3832998 -4.9138813
v 16.086168 -7.8833003 -4.9138813
v 4.9138813 -9.3832998 -16.086168
v 4.9138813 -7.8833003 -16.086168
vn -0.70710678 0 0.70710678
vn -0.70710678 0 0.70710678
vn -0.70710678 0 0.70710678
vn -0.70359754 -0.099503718 0.70359754
vn -0.70359754 -0.099503718 0.70359754
vn -0.70359754 -0.099503718 0.70359754
vn -0.56031551 -0.6099943 0.56031551
vn -0.13867551 0.98058055 0.13867551
vn -0.03922334 -0.99846034 0.03922334
vn -0.037164814 0.99861782 0.037164814
vn -0.037164814 0.99861782 0.037164814
vn -0.037164814 0.99861782 0.037164814
vn -0.035311227 0.99875234 0.035311227
vn -0.035311227 0.99875234 0.035311227
vn -0.035311227 0.99875234 0.035311227
vn 0.70710678 0 0.70710678
vn 0.055275834 -0.9969399 0.055275834
vn 0.055275834 0.9969399 0.055275834
vn 0.055275829 -0.9969399 0.055275829
vn 0.055275829 0.9969399 0.055275829
vn 0.037164819 -0.99861782 0.037164819
vn 0.037164819 0.99861782 0.037164819
vn 0.03531133 -0.99875233 0.03531133
vn 0.03531133 0.99875233 0.03531133
vn 0 -1 0
vn 0 1 0
vn -0.03531133 -0.99875233 -0.03531133
vn -0.03531133 0.99875233 -0.03531133
vn -0.037164819 -0.99861782 -0.037164819
vn -0.037164819 0.99861782 -0.037164819
vn -0.055275829 -0.9969399 -0.055275829
vn -0.055275829 0.9969399 -0.055275829
vn -0.055275834 -0.9969399 -0.055275834
vn -0.055275834 0.9969399 -0.055275834
vn -0.70710678 0 -0.70710678
vn 0.035311227 -0.99875234 -0.035311227
vn 0.035311227 -0.99875234 -0.035311227
vn 0.035311227 -0.99875234 -0.035311227
vn 0.037164814 -0.99861782 -0.037164814
vn 0.037164814 -0.99861782 -0.037164814
vn 0.037164814 -0.99861782 -0.037164814
vn 0.03922334 0.99846034 -0.03922334
vn 0.13867551 -0.98058055 -0.13867551
vn 0.56031551 0.6099943 -0.56031551
vn 0.70359754 0.099503718 -0.70359754
vn 0.70359754 0.099503718 -0.70359754
vn 0.70359754 0.099503718 -0.70359754
vn 0.70710678 0 -0.70710678
vn 0.70710678 0 -0.70710678
vn 0.70710678 0 -0.70710678
usemtl mat_Global_e3b63687
f 40//26 7//26 2//26
f 2//25 7//25 40//25
f 2//26 36//26 40//26
f 40//25 36//25 2//25
f 39//35 6//35 7//35
f 7//16 6//16 39//16
f 7//35 40//35 39//35
f 39//16 40//16 7//16
f 37//19 4//19 6//19
f 6//32 4//32 37//32
f 6//19 39//19 37//19
f 37//32 39//32 6//32
f 35//17 1//17 4//17
f 4//34 1//34 35//34
f 4//17 37//17 35//17
f 35//34 37//34 4//34
f 36//16 2//16 1//16
f 1//35 2//35 36//35
f 1//16 35//16 36//16
f 36//35 35//35 1//35
f 1//1 2//1 4//1
f 4//50 2//50 1//50
f 7//1 6//1 4//1
f 4//50 6//50 7//50
f 4//1 2//1 7//1
f 7//50 2//50 4//50
f 40//50 36//50 37//50
f 37//1 36//1 40//1
f 37//50 39//50 40//50
f 40//1 39//1 37//1
f 35//50 37//50 36//50
f 36//1 37//1 35//1
f 48//26 14//26 10//26
f 10//25 14//25 48//25
f 10//26 43//26 48//26
f 48//25 43//25 10//25
f 46//35 13//35 14//35
f 14//16 13//16 46//16
f 14//35 48//35 46//35
f 46//16 48//16 14//16
f 45//33 12//33 13//33
f 13//18 12//18 45//18
f 13//33 46//33 45//33
f 45//18 46//18 13//18
f 42//31 9//31 12//31
f 12//20 9//20 42//20
f 12//31 45//31 42//31
f 42//20 45//20 12//20
f 43//16 10//16 9//16
f 9//35 10//35 43//35
f 9//16 42//16 43//16
f 43//35 42//35 9//35
f 9//1 10//1 12//1
f 12//50 10//50 9//50
f 14//1 13//1 12//1
f 12//50 13//50 14//50
f 12//1 10//1 14//1
f 14//50 10//50 12//50
f 47//50 44//50 45//50
f 45//1 44//1 47//1
f 45//50 46//50 47//50
f 47//1 46//1 45//1
f 42//50 45//50 44//50
f 44//1 45//1 42//1
f 74//20 76//20 12//20
f 12//31 76//31 74//31
f 12//20 9//20 74//20
f 74//31 9//31 12//31
f 76//50 74//50 73//50
f 73//1 74//1 76//1
f 73//50 72//50 75//50
f 75//1 72//1 73//1
f 75//50 76//50 73//50
f 73//1 76//1 75//1
f 75//25 72//25 63//25
f 63//26 72//26 75//26
f 63//25 29//25 30//25
f 30//26 29//26 63//26
f 30//25 75//25 63//25
f 63//26 75//26 30//26
f 8//7 11//7 30//7
f 30//44 11//44 8//44
f 30//7 29//7 8//7
f 8//44 29//44 30//44
f 9//1 12//1 11//1
f 11//50 12//50 9//50
f 11//1 8//1 9//1
f 9//50 8//50 11//50
f 11//35 12//35 76//35
f 76//16 12//16 11//16
f 76//35 75//35 30//35
f 30//16 75//16 76//16
f 30//35 11//35 76//35
f 76//16 11//16 30//16
f 8//16 73//16 74//16
f 74//35 73//35 8//35
f 74//16 9//16 8//16
f 8//35 9//35 74//35
f 73//16 29//16 63//16
f 63//35 29//35 73//35
f 63//16 72//16 73//16
f 73//35 72//35 63//35
f 73//16 8//16 29//16
f 29//35 8//35 73//35
f 5//1 3//1 6//1
f 6//50 3//50 5//50
f 3//1 4//1 6//1
f 6//50 4//50 3//50
f 28//7 27//7 3//7
f 3//44 27//44 28//44
f 3//7 5//7 28//7
f 28//44 5//44 3//44
f 27//25 28//25 54//25
f 54//26 28//26 27//26
f 54//25 69//25 67//25
f 67//26 69//26 54//26
f 67//25 27//25 54//25
f 54//26 27//26 67//26
f 67//50 69//50 70//50
f 70//1 69//1 67//1
f 70//50 71//50 68//50
f 68//1 71//1 70//1
f 68//50 67//50 70//50
f 70//1 67//1 68//1
f 6//32 4//32 68//32
f 68//19 4//19 6//19
f 68//32 71//32 6//32
f 6//19 71//19 68//19
f 68//16 4//16 3//16
f 3//35 4//35 68//35
f 27//16 67//16 68//16
f 68//35 67//35 27//35
f 68//16 3//16 27//16
f 27//35 3//35 68//35
f 28//35 5//35 70//35
f 70//16 5//16 28//16
f 70//35 54//35 28//35
f 28//16 54//16 70//16
f 5//35 6//35 71//35
f 71//16 6//16 5//16
f 71//35 70//35 5//35
f 5//16 70//16 71//16
f 69//35 54//35 70//35
f 70//16 54//16 69//16
f 19//1 20//1 22//1
f 22//50 20//50 19//50
f 22//1 21//1 19//1
f 19//50 21//50 22//50
f 33//16 34//16 20//16
f 20//35 34//35 33//35
f 20//16 19//16 33//16
f 33//35 19//35 20//35
f 31//1 32//1 34//1
f 34//50 32//50 31//50
f 34//1 33//1 31//1
f 31//50 33//50 34//50
f 17//35 18//35 32//35
f 32//16 18//16 17//16
f 32//35 31//35 17//35
f 17//16 31//16 32//16
f 15//1 16//1 18//1
f 18//50 16//50 15//50
f 18//1 17//1 15//1
f 15//50 17//50 18//50
f 77//16 78//16 16//16
f 16//35 78//35 77//35
f 16//16 15//16 77//16
f 77//35 15//35 16//35
f 79//50 80//50 78//50
f 78//1 80//1 79//1
f 78//50 77//50 79//50
f 79//1 77//1 78//1
f 21//35 22//35 80//35
f 80//16 22//16 21//16
f 80//35 79//35 21//35
f 21//16 79//16 80//16
f 22//26 20//26 34//26
f 34//25 20//25 22//25
f 34//26 80//26 22//26
f 22//25 80//25 34//25
f 80//26 34//26 32//26
f 32//25 34//25 80//25
f 32//26 78//26 80//26
f 80//25 78//25 32//25
f 32//26 18//26 16//26
f 16//25 18//25 32//25
f 16//26 78//26 32//26
f 32//25 78//25 16//25
f 33//25 19//25 21//25
f 21//26 19//26 33//26
f 21//25 79//25 33//25
f 33//26 79//26 21//26
f 15//25 17//25 31//25
f 31//26 17//26 15//26
f 31//25 77//25 15//25
f 15//26 77//26 31//26
f 31//25 33//25 79//25
f 79//26 33//26 31//26
f 79//25 77//25 31//25
f 31//26 77//26 79//26
f 20//8 25//8 22//8
f 22//43 25//43 20//43
f 25//8 26//8 22//8
f 22//43 26//43 25//43
f 34//24 61//24 25//24
f 25//27 61//27 34//27
f 25//24 20//24 34//24
f 34//27 20//27 25//27
f 32//10 58//11 34//11
f 34//40 58//40 32//41
f 58//11 61//12 34//11
f 34//40 61//39 58//40
f 18//28 24//28 32//28
f 32//23 24//23 18//23
f 24//28 57//28 32//28
f 32//23 57//23 24//23
f 16//8 23//8 24//8
f 24//43 23//43 16//43
f 24//8 18//8 16//8
f 16//43 18//43 24//43
f 78//22 67//22 16//22
f 16//29 67//29 78//29
f 67//22 23//22 16//22
f 16//29 23//29 67//29
f 80//42 75//42 67//42
f 67//9 75//9 80//9
f 67//42 78//42 80//42
f 80//9 78//9 67//9
f 22//30 26//30 75//30
f 75//21 26//21 22//21
f 75//30 80//30 22//30
f 22//21 80//21 75//21
f 57//26 24//26 23//26
f 23//25 24//25 57//25
f 23//26 67//26 57//26
f 57//25 67//25 23//25
f 26//26 25//26 60//26
f 60//25 25//25 26//25
f 60//26 75//26 26//26
f 26//25 75//25 60//25
f 60//26 57//26 67//26
f 67//25 57//25 60//25
f 67//26 75//26 60//26
f 60//25 75//25 67//25
f 34//25 20//25 22//25
f 22//26 20//26 34//26
f 22//25 80//25 34//25
f 34//26 80//26 22//26
f 16//25 18//25 32//25
f 32//26 18//26 16//26
f 32//25 78//25 16//25
f 16//26 78//26 32//26
f 32//25 34//25 80//25
f 80//26 34//26 32//26
f 80//25 78//25 32//25
f 32//26 78//26 80//26
f 53//26 59//26 42//26
f 42//25 59//25 53//25
f 42//26 39//26 53//26
f 53//25 39//25 42//25
f 55//49 65//49 59//49
f 59//2 65//2 55//2
f 59//49 49//49 55//49
f 55//2 49//2 59//2
f 70//14 73//13 62//14
f 62//37 73//38 70//37
f 62//14 52//15 70//14
f 70//37 52//36 62//37
f 69//50 72//50 73//50
f 73//1 72//1 69//1
f 73//50 70//50 69//50
f 69//1 70//1 73//1
f 50//25 63//25 69//25
f 69//26 63//26 50//26
f 63//25 72//25 69//25
f 69//26 72//26 63//26
f 51//3 64//3 63//3
f 63//48 64//48 51//48
f 63//3 50//3 51//3
f 51//48 50//48 63//48
f 38//4 41//5 56//5
f 56//46 41//46 38//47
f 41//5 66//6 56//5
f 56//46 66//45 41//46
f 39//1 42//1 41//1
f 41//50 42//50 39//50
f 41//1 38//1 39//1
f 39//50 38//50 41//50
f 65//35 41//35 42//35
f 42//16 41//16 65//16
f 42//35 59//35 65//35
f 65//16 59//16 42//16
f 41//35 73//35 72//35
f 72//16 73//16 41//16
f 72//35 64//35 41//35
f 41//16 64//16 72//16
f 64//35 72//35 63//35
f 63//16 72//16 64//16
f 73//35 41//35 65//35
f 65//16 41//16 73//16
f 52//16 53//16 39//16
f 39//35 53//35 52//35
f 39//16 38//16 52//16
f 52//35 38//35 39//35
f 70//16 52//16 38//16
f 38//35 52//35 70//35
f 38//16 51//16 69//16
f 69//35 51//35 38//35
f 69//16 70//16 38//16
f 38//35 70//35 69//35
f 69//16 51//16 50//16
f 50//35 51//35 69//35
g mesh_1
v 60.001694 -0.65 -69.759768
v 60.001694 -0.4 -69.759768
v 60.63809 -1.7833 -69.123372
v 60.63809 -0.72057059 -69.123372
v 61.203776 -1.7833 -68.557686
v 61.203776 -0.78330002 -68.557686
v 61.203776 -0.4 -68.557686
v 68.557686 -1.7833 -61.203776
v 68.557686 -0.78330002 -61.203776
v 68.557686 -0.4 -61.203776
v 69.123372 -1.7833 -60.63809
v 69.123372 -0.72057059 -60.63809
v 69.759768 -0.65 -60.001694
v 69.759768 -0.4 -60.001694
v 56.452865 -9.3832998 -67.625152
v 56.452865 -7.8833003 -67.625152
v 59.776267 -9.3832998 -64.30175
v 59.776267 -7.8833003 -64.30175
v 64.30175 -9.3832998 -59.776267
v 64.30175 -7.8833003 -59.776267
v 67.625152 -9.3832998 -56.452865
v 67.625152 -7.8833003 -56.452865
v 57.442815 -7.7832998 -65.928096
v 58.0085 -7.7832998 -65.362411
v 65.362411 -7.7832998 -58.0085
v 65.928096 -7.7832998 -57.442815
v 57.372104 -7.7832998 -65.857385
v 57.937789 -7.7832998 -65.2917
v 65.2917 -7.7832998 -57.937789
v 65.857385 -7.7832998 -57.372104
v 55.476211 -9.3832998 -60.001694
v 55.476211 -7.8833003 -60.001694
v 60.001694 -9.3832998 -55.476211
v 60.001694 -7.8833003 -55.476211
v 51.728545 -0.65 -61.486618
v 51.728545 -0.4 -61.486618
v 52.364941 -0.72057059 -60.850222
v 52.930626 -3.7832998 -60.284537
v 52.930626 -0.78330002 -60.284537
v 52.930626 -0.4 -60.284537
v 60.284537 -3.7832998 -52.930626
v 60.284537 -0.78330002 -52.930626
v 60.284537 -0.4 -52.930626
v 60.284537 -0.4 -52.930626
v 60.850222 -0.72057059 -52.364941
v 61.486618 -0.65 -51.728545
v 61.486618 -0.4 -51.728545
v 61.486618 -0.4 -51.728545
v 52.718494 -0.78330002 -60.072405
v 52.718494 -7.7832998 -60.072405
v 52.718494 -6.7832998 -60.072405
v 52.718494 -1.8333 -60.072405
v 52.718494 -0.78330002 -60.072405
v 52.718494 -7.7832998 -60.072405
v 52.718494 -1.8333 -60.072405
v 52.718494 -6.7832998 -60.072405
v 52.718494 -7.7832998 -60.072405
v 52.718494 -7.7832998 -60.072405
v 60.072405 -0.78330002 -52.718494
v 60.072405 -7.7832998 -52.718494
v 60.072405 -7.7832998 -52.718494
v 60.072405 -1.8333 -52.718494
v 60.072405 -7.7832998 -52.718494
v 60.072405 -6.7832998 -52.718494
v 60.072405 -1.8333 -52.718494
v 60.072405 -6.7832998 -52.718494
v 51.445702 -7.7832998 -59.930983
v 51.445702 -0.72057059 -59.930983
v 52.011388 -7.7832998 -59.365298
v 52.011388 -1.7833 -59.365298
v 52.011388 -0.78330002 -59.365298
v 59.365298 -7.7832998 -52.011388
v 59.365298 -1.7833 -52.011388
v 59.365298 -0.78330002 -52.011388
v 59.930983 -7.7832998 -51.445702
v 59.930983 -0.72057059 -51.445702
v 48.829407 -9.3832998 -60.001694
v 48.829407 -7.8833003 -60.001694
v 60.001694 -9.3832998 -48.829407
v 60.001694 -7.8833003 -48.829407
vn 0.70710678 0 -0.70710678
vn 0.70710678 0 -0.70710678
vn 0.70710678 0 -0.70710678
vn 0.70359754 -0.099503718 -0.70359754
vn 0.70359754 -0.099503718 -0.70359754
vn 0.70359754 -0.099503718 -0.70359754
vn 0.56031551 -0.6099943 -0.56031551
vn 0.13867551 0.98058055 -0.13867551
vn 0.03922334 -0.99846034 -0.03922334
vn 0.037164814 0.99861782 -0.037164814
vn 0.037164814 0.99861782 -0.037164814
vn 0.037164814 0.99861782 -0.037164814
vn 0.035311227 0.99875234 -0.035311227
vn 0.035311227 0.99875234 -0.035311227
vn 0.035311227 0.99875234 -0.035311227
vn -0.70710678 0 -0.70710678
vn -0.055275834 -0.9969399 -0.055275834
vn -0.055275834 0.9969399 -0.055275834
vn -0.055275829 -0.9969399 -0.055275829
vn -0.055275829 0.9969399 -0.055275829
vn -0.037164819 -0.99861782 -0.037164819
vn -0.037164819 0.99861782 -0.037164819
vn -0.03531133 -0.99875233 -0.03531133
vn -0.03531133 0.99875233 -0.03531133
vn 0 -1 0
vn 0 1 0
vn 0.03531133 -0.99875233 0.03531133
vn 0.03531133 0.99875233 0.03531133
vn 0.037164819 -0.99861782 0.037164819
vn 0.037164819 0.99861782 0.037164819
vn 0.055275829 -0.9969399 0.055275829
vn 0.055275829 0.9969399 0.055275829
vn 0.055275834 -0.9969399 0.055275834
vn 0.055275834 0.9969399 0.055275834
vn 0.70710678 0 0.70710678
vn -0.035311227 -0.99875234 0.035311227
vn -0.035311227 -0.99875234 0.035311227
vn -0.035311227 -0.99875234 0.035311227
vn -0.037164814 -0.99861782 0.037164814
vn -0.037164814 -0.99861782 0.037164814
vn -0.037164814 -0.99861782 0.037164814
vn -0.03922334 0.99846034 0.03922334
vn -0.13867551 -0.98058055 0.13867551
vn -0.56031551 0.6099943 0.56031551
vn -0.70359754 0.099503718 0.70359754
vn -0.70359754 0.099503718 0.70359754
vn -0.70359754 0.099503718 0.70359754
vn -0.70710678 0 0.70710678
vn -0.70710678 0 0.70710678
vn -0.70710678 0 0.70710678
usemtl mat_Global_e3b63687
f 120//76 87//76 82//76
f 82//75 87//75 120//75
f 82//76 116//76 120//76
f 120//75 116//75 82//75
f 119//85 86//85 87//85
f 87//66 86//66 119//66
f 87//85 120//85 119//85
f 119//66 120//66 87//66
f 117//69 84//69 86//69
f 86//82 84//82 117//82
f 86//69 119//69 117//69
f 117//82 119//82 86//82
f 115//67 81//67 84//67
f 84//84 81//84 115//84
f 84//67 117//67 115//67
f 115//84 117//84 84//84
f 116//66 82//66 81//66
f 81//85 82//85 116//85
f 81//66 115//66 116//66
f 116//85 115//85 81//85
f 81//51 82//51 84//51
f 84//100 82//100 81//100
f 87//51 86//51 84//51
f 84//100 86//100 87//100
f 84//51 82//51 87//51
f 87//100 82//100 84//100
f 120//100 116//100 117//100
f 117//51 116//51 120//51
f 117//100 119//100 120//100
f 120//51 119//51 117//51
f 115//100 117//100 116//100
f 116//51 117//51 115//51
f 128//76 94//76 90//76
f 90//75 94//75 128//75
f 90//76 123//76 128//76
f 128//75 123//75 90//75
f 126//85 93//85 94//85
f 94//66 93//66 126//66
f 94//85 128//85 126//85
f 126//66 128//66 94//66
f 125//83 92//83 93//83
f 93//68 92//68 125//68
f 93//83 126//83 125//83
f 125//68 126//68 93//68
f 122//81 89//81 92//81
f 92//70 89//70 122//70
f 92//81 125//81 122//81
f 122//70 125//70 92//70
f 123//66 90//66 89//66
f 89//85 90//85 123//85
f 89//66 122//66 123//66
f 123//85 122//85 89//85
f 89//51 90//51 92//51
f 92//100 90//100 89//100
f 94//51 93//51 92//51
f 92//100 93//100 94//100
f 92//51 90//51 94//51
f 94//100 90//100 92//100
f 127//100 124//100 125//100
f 125//51 124//51 127//51
f 125//100 126//100 127//100
f 127//51 126//51 125//51
f 122//100 125//100 124//100
f 124//51 125//51 122//51
f 154//70 156//70 92//70
f 92//81 156//81 154//81
f 92//70 89//70 154//70
f 154//81 89//81 92//81
f 156//100 154//100 153//100
f 153//51 154//51 156//51
f 153//100 152//100 155//100
f 155//51 152//51 153//51
f 155//100 156//100 153//100
f 153//51 156//51 155//51
f 155//75 152//75 143//75
f 143//76 152//76 155//76
f 143//75 109//75 110//75
f 110//76 109//76 143//76
f 110//75 155//75 143//75
f 143//76 155//76 110//76
f 88//57 91//57 110//57
f 110//94 91//94 88//94
f 110//57 109//57 88//57
f 88//94 109//94 110//94
f 89//51 92//51 91//51
f 91//100 92//100 89//100
f 91//51 88//51 89//51
f 89//100 88//100 91//100
f 91//85 92//85 156//85
f 156//66 92//66 91//66
f 156//85 155//85 110//85
f 110//66 155//66 156//66
f 110//85 91//85 156//85
f 156//66 91//66 110//66
f 88//66 153//66 154//66
f 154//85 153//85 88//85
f 154//66 89//66 88//66
f 88//85 89//85 154//85
f 153//66 109//66 143//66
f 143//85 109//85 153//85
f 143//66 152//66 153//66
f 153//85 152//85 143//85
f 153//66 88//66 109//66
f 109//85 88//85 153//85
f 85//51 83//51 86//51
f 86//100 83//100 85//100
f 83//51 84//51 86//51
f 86//100 84//100 83//100
f 108//57 107//57 83//57
f 83//94 107//94 108//94
f 83//57 85//57 108//57
f 108//94 85//94 83//94
f 107//75 108//75 134//75
f 134//76 108//76 107//76
f 134//75 149//75 147//75
f 147//76 149//76 134//76
f 147//75 107//75 134//75
f 134//76 107//76 147//76
f 147//100 149//100 150//100
f 150//51 149//51 147//51
f 150//100 151//100 148//100
f 148//51 151//51 150//51
f 148//100 147//100 150//100
f 150//51 147//51 148//51
f 86//82 84//82 148//82
f 148//69 84//69 86//69
f 148//82 151//82 86//82
f 86//69 151//69 148//69
f 148//66 84//66 83//66
f 83//85 84//85 148//85
f 107//66 147//66 148//66
f 148//85 147//85 107//85
f 148//66 83//66 107//66
f 107//85 83//85 148//85
f 108//85 85//85 150//85
f 150//66 85//66 108//66
f 150//85 134//85 108//85
f 108//66 134//66 150//66
f 85//85 86//85 151//85
f 151//66 86//66 85//66
f 151//85 150//85 85//85
f 85//66 150//66 151//66
f 149//85 134//85 150//85
f 150//66 134//66 149//66
f 99//51 100//51 102//51
f 102//100 100//100 99//100
f 102//51 101//51 99//51
f 99//100 101//100 102//100
f 113//66 114//66 100//66
f 100//85 114//85 113//85
f 100//66 99//66 113//66
f 113//85 99//85 100//85
f 111//51 112//51 114//51
f 114//100 112//100 111//100
f 114//51 113//51 111//51
f 111//100 113//100 114//100
f 97//85 98//85 112//85
f 112//66 98//66 97//66
f 112//85 111//85 97//85
f 97//66 111//66 112//66
f 95//51 96//51 98//51
f 98//100 96//100 95//100
f 98//51 97//51 95//51
f 95//100 97//100 98//100
f 157//66 158//66 96//66
f 96//85 158//85 157//85
f 96//66 95//66 157//66
f 157//85 95//85 96//85
f 159//100 160//100 158//100
f 158//51 160//51 159//51
f 158//100 157//100 159//100
f 159//51 157//51 158//51
f 101//85 102//85 160//85
f 160//66 102//66 101//66
f 160//85 159//85 101//85
f 101//66 159//66 160//66
f 102//76 100//76 114//76
f 114//75 100//75 102//75
f 114//76 160//76 102//76
f 102//75 160//75 114//75
f 160//76 114//76 112//76
f 112//75 114//75 160//75
f 112//76 158//76 160//76
f 160//75 158//75 112//75
f 112//76 98//76 96//76
f 96//75 98//75 112//75
f 96//76 158//76 112//76
f 112//75 158//75 96//75
f 113//75 99//75 101//75
f 101//76 99//76 113//76
f 101//75 159//75 113//75
f 113//76 159//76 101//76
f 95//75 97//75 111//75
f 111//76 97//76 95//76
f 111//75 157//75 95//75
f 95//76 157//76 111//76
f 111//75 113//75 159//75
f 159//76 113//76 111//76
f 159//75 157//75 111//75
f 111//76 157//76 159//76
f 100//58 105//58 102//58
f 102//93 105//93 100//93
f 105//58 106//58 102//58
f 102//93 106//93 105//93
f 114//74 141//74 105//74
f 105//77 141//77 114//77
f 105//74 100//74 114//74
f 114//77 100//77 105//77
f 112//60 138//61 114//61
f 114//90 138//90 112//91
f 138//61 141//62 114//61
f 114//90 141//89 138//90
f 98//78 104//78 112//78
f 112//73 104//73 98//73
f 104//78 137//78 112//78
f 112//73 137//73 104//73
f 96//58 103//58 104//58
f 104//93 103//93 96//93
f 104//58 98//58 96//58
f 96//93 98//93 104//93
f 158//72 147//72 96//72
f 96//79 147//79 158//79
f 147//72 103//72 96//72
f 96//79 103//79 147//79
f 160//92 155//92 147//92
f 147//59 155//59 160//59
f 147//92 158//92 160//92
f 160//59 158//59 147//59
f 102//80 106//80 155//80
f 155//71 106//71 102//71
f 155//80 160//80 102//80
f 102//71 160//71 155//71
f 137//76 104//76 103//76
f 103//75 104//75 137//75
f 103//76 147//76 137//76
f 137//75 147//75 103//75
f 106//76 105//76 140//76
f 140//75 105//75 106//75
f 140//76 155//76 106//76
f 106//75 155//75 140//75
f 140//76 137//76 147//76
f 147//75 137//75 140//75
f 147//76 155//76 140//76
f 140//75 155//75 147//75
f 114//75 100//75 102//75
f 102//76 100//76 114//76
f 102//75 160//75 114//75
f 114//76 160//76 102//76
f 96//75 98//75 112//75
f 112//76 98//76 96//76
f 112//75 158//75 96//75
f 96//76 158//76 112//76
f 112//75 114//75 160//75
f 160//76 114//76 112//76
f 160//75 158//75 112//75
f 112//76 158//76 160//76
f 133//76 139//76 122//76
f 122//75 139//75 133//75
f 122//76 119//76 133//76
f 133//75 119//75 122//75
f 135//99 145//99 139//99
f 139//52 145//52 135//52
f 139//99 129//99 135//99
f 135//52 129//52 139//52
f 150//64 153//63 142//64
f 142//87 153//88 150//87
f 142//64 132//65 150//64
f 150//87 132//86 142//87
f 149//100 152//100 153//100
f 153//51 152//51 149//51
f 153//100 150//100 149//100
f 149//51 150//51 153//51
f 130//75 143//75 149//75
f 149//76 143//76 130//76
f 143//75 152//75 149//75
f 149//76 152//76 143//76
f 131//53 144//53 143//53
f 143//98 144//98 131//98
f 143//53 130//53 131//53
f 131//98 130//98 143//98
f 118//54 121//55 136//55
f 136//96 121//96 118//97
f 121//55 146//56 136//55
f 136//96 146//95 121//96
f 119//51 122//51 121//51
f 121//100 122//100 119//100
f 121//51 118//51 119//51
f 119//100 118//100 121//100
f 145//85 121//85 122//85
f 122//66 121//66 145//66
f 122//85 139//85 145//85
f 145//66 139//66 122//66
f 121//85 153//85 152//85
f 152//66 153//66 121//66
f 152//85 144//85 121//85
f 121//66 144//66 152//66
f 144//85 152//85 143//85
f 143//66 152//66 144//66
f 153//85 121//85 145//85
f 145//66 121//66 153//66
f 132//66 133//66 119//66
f 119//85 133//85 132//85
f 119//66 118//66 132//66
f 132//85 118//85 119//85
f 150//66 132//66 118//66
f 118//85 132//85 150//85
f 118//66 131//66 149//66
f 149//85 131//85 118//85
f 149//66 150//66 118//66
f 118//85 150//85 149//85
f 149//66 131//66 130//66
f 130//85 131//85 149//85
